<svg xmlns="http://www.w3.org/2000/svg"
     viewBox="0 0 500 500"
     width="500" height="500">

  <circle cx="250.0" cy="250.0" r="246.00" fill="rgb(15,15,20)" fill-opacity="0.80"/>
  <circle cx="250.0" cy="250.0" r="246.00" fill="none" stroke="rgb(55,55,65)" stroke-width="3"/>
  <path d="M 114.32,385.68 A 191.88,191.88 0 1,1 385.68,385.68 L 406.55,406.55 A 221.40,221.40 0 1,0 93.45,406.55 Z" fill="rgb(180,180,180)"/>
  <path d="M 114.32,385.68 A 191.88,191.88 0 0,1 162.89,79.03 L 149.49,52.73 A 221.40,221.40 0 0,0 93.45,406.55 Z" fill="rgb(30,100,200)"/>
  <path d="M 441.29,265.05 A 191.88,191.88 0 0,1 385.68,385.68 L 406.55,406.55 A 221.40,221.40 0 0,0 470.72,267.37 Z" fill="rgb(200,30,30)"/>
  <line x1="128.24" y1="371.76" x2="93.45" y2="406.55" stroke="rgb(220,220,220)" stroke-width="2.5" stroke-linecap="round"/>
  <line x1="79.92" y1="223.06" x2="31.33" y2="215.37" stroke="rgb(220,220,220)" stroke-width="2.5" stroke-linecap="round"/>
  <line x1="171.82" y1="96.57" x2="149.49" y2="52.73" stroke="rgb(220,220,220)" stroke-width="2.5" stroke-linecap="round"/>
  <line x1="328.18" y1="96.57" x2="350.51" y2="52.73" stroke="rgb(220,220,220)" stroke-width="2.5" stroke-linecap="round"/>
  <line x1="420.08" y1="223.06" x2="468.67" y2="215.37" stroke="rgb(220,220,220)" stroke-width="2.5" stroke-linecap="round"/>
  <line x1="371.76" y1="371.76" x2="406.55" y2="406.55" stroke="rgb(220,220,220)" stroke-width="2.5" stroke-linecap="round"/>
  <line x1="84.30" y1="351.54" x2="61.23" y2="365.68" stroke="rgb(220,220,220)" stroke-width="1.2" stroke-linecap="round"/>
  <line x1="65.17" y1="310.05" x2="39.44" y2="318.42" stroke="rgb(220,220,220)" stroke-width="1.2" stroke-linecap="round"/>
  <line x1="56.26" y1="265.25" x2="29.28" y2="267.37" stroke="rgb(220,220,220)" stroke-width="1.2" stroke-linecap="round"/>
  <line x1="70.45" y1="175.63" x2="45.45" y2="165.27" stroke="rgb(220,220,220)" stroke-width="1.2" stroke-linecap="round"/>
  <line x1="92.78" y1="135.77" x2="70.88" y2="119.86" stroke="rgb(220,220,220)" stroke-width="1.2" stroke-linecap="round"/>
  <line x1="123.79" y1="102.22" x2="106.21" y2="81.65" stroke="rgb(220,220,220)" stroke-width="1.2" stroke-linecap="round"/>
  <line x1="204.63" y1="61.03" x2="198.32" y2="34.72" stroke="rgb(220,220,220)" stroke-width="1.2" stroke-linecap="round"/>
  <line x1="250.00" y1="55.66" x2="250.00" y2="28.60" stroke="rgb(220,220,220)" stroke-width="1.2" stroke-linecap="round"/>
  <line x1="295.37" y1="61.03" x2="301.68" y2="34.72" stroke="rgb(220,220,220)" stroke-width="1.2" stroke-linecap="round"/>
  <line x1="376.21" y1="102.22" x2="393.79" y2="81.65" stroke="rgb(220,220,220)" stroke-width="1.2" stroke-linecap="round"/>
  <line x1="407.22" y1="135.77" x2="429.12" y2="119.86" stroke="rgb(220,220,220)" stroke-width="1.2" stroke-linecap="round"/>
  <line x1="429.55" y1="175.63" x2="454.55" y2="165.27" stroke="rgb(220,220,220)" stroke-width="1.2" stroke-linecap="round"/>
  <line x1="443.74" y1="265.25" x2="470.72" y2="267.37" stroke="rgb(220,220,220)" stroke-width="1.2" stroke-linecap="round"/>
  <line x1="434.83" y1="310.05" x2="460.56" y2="318.42" stroke="rgb(220,220,220)" stroke-width="1.2" stroke-linecap="round"/>
  <line x1="415.70" y1="351.54" x2="438.77" y2="365.68" stroke="rgb(220,220,220)" stroke-width="1.2" stroke-linecap="round"/>
  <circle cx="250.0" cy="250.0" r="191.88" fill="none" stroke="rgb(8,8,12)" stroke-opacity="0.80" stroke-width="3"/>
  <circle cx="250.0" cy="250.0" r="14.76" fill="rgb(30,30,35)" stroke="rgb(90,90,100)" stroke-width="1.5"/>

</svg>