<svg xmlns="http://www.w3.org/2000/svg"
     viewBox="0 0 500 500"
     width="500" height="500">

  <circle cx="250.0" cy="250.0" r="246.00" fill="rgb(15,15,20)" fill-opacity="0.80"/>
  <circle cx="250.0" cy="250.0" r="246.00" fill="none" stroke="rgb(55,55,65)" stroke-width="3"/>
  <path d="M 114.32,385.68 A 191.88,191.88 0 1,1 385.68,385.68 L 406.55,406.55 A 221.40,221.40 0 1,0 93.45,406.55 Z" fill="rgb(180,180,180)"/>
  <line x1="128.24" y1="371.76" x2="93.45" y2="406.55" stroke="rgb(220,220,220)" stroke-width="2.5" stroke-linecap="round"/>
  <line x1="88.66" y1="310.18" x2="42.56" y2="327.37" stroke="rgb(220,220,220)" stroke-width="2.5" stroke-linecap="round"/>
  <line x1="78.24" y1="237.72" x2="29.16" y2="234.21" stroke="rgb(220,220,220)" stroke-width="2.5" stroke-linecap="round"/>
  <line x1="98.86" y1="167.47" x2="55.68" y2="143.89" stroke="rgb(220,220,220)" stroke-width="2.5" stroke-linecap="round"/>
  <line x1="146.80" y1="112.15" x2="117.32" y2="72.76" stroke="rgb(220,220,220)" stroke-width="2.5" stroke-linecap="round"/>
  <line x1="213.40" y1="81.74" x2="202.94" y2="33.66" stroke="rgb(220,220,220)" stroke-width="2.5" stroke-linecap="round"/>
  <line x1="286.60" y1="81.74" x2="297.06" y2="33.66" stroke="rgb(220,220,220)" stroke-width="2.5" stroke-linecap="round"/>
  <line x1="353.20" y1="112.15" x2="382.68" y2="72.76" stroke="rgb(220,220,220)" stroke-width="2.5" stroke-linecap="round"/>
  <line x1="401.14" y1="167.47" x2="444.32" y2="143.89" stroke="rgb(220,220,220)" stroke-width="2.5" stroke-linecap="round"/>
  <line x1="421.76" y1="237.72" x2="470.84" y2="234.21" stroke="rgb(220,220,220)" stroke-width="2.5" stroke-linecap="round"/>
  <line x1="411.34" y1="310.18" x2="457.44" y2="327.37" stroke="rgb(220,220,220)" stroke-width="2.5" stroke-linecap="round"/>
  <line x1="371.76" y1="371.76" x2="406.55" y2="406.55" stroke="rgb(220,220,220)" stroke-width="2.5" stroke-linecap="round"/>
  <line x1="98.68" y1="371.94" x2="77.61" y2="388.92" stroke="rgb(220,220,220)" stroke-width="1.2" stroke-linecap="round"/>
  <line x1="86.51" y1="355.07" x2="63.75" y2="369.70" stroke="rgb(220,220,220)" stroke-width="1.2" stroke-linecap="round"/>
  <line x1="76.22" y1="336.99" x2="52.02" y2="349.10" stroke="rgb(220,220,220)" stroke-width="1.2" stroke-linecap="round"/>
  <line x1="61.70" y1="298.06" x2="35.48" y2="304.75" stroke="rgb(220,220,220)" stroke-width="1.2" stroke-linecap="round"/>
  <line x1="57.64" y1="277.66" x2="30.85" y2="281.51" stroke="rgb(220,220,220)" stroke-width="1.2" stroke-linecap="round"/>
  <line x1="55.78" y1="256.94" x2="28.74" y2="257.90" stroke="rgb(220,220,220)" stroke-width="1.2" stroke-linecap="round"/>
  <line x1="58.75" y1="215.49" x2="32.12" y2="210.69" stroke="rgb(220,220,220)" stroke-width="1.2" stroke-linecap="round"/>
  <line x1="63.53" y1="195.25" x2="37.57" y2="187.62" stroke="rgb(220,220,220)" stroke-width="1.2" stroke-linecap="round"/>
  <line x1="70.45" y1="175.63" x2="45.45" y2="165.27" stroke="rgb(220,220,220)" stroke-width="1.2" stroke-linecap="round"/>
  <line x1="90.37" y1="139.16" x2="68.14" y2="123.73" stroke="rgb(220,220,220)" stroke-width="1.2" stroke-linecap="round"/>
  <line x1="103.13" y1="122.73" x2="82.68" y2="105.01" stroke="rgb(220,220,220)" stroke-width="1.2" stroke-linecap="round"/>
  <line x1="117.57" y1="107.76" x2="99.13" y2="87.96" stroke="rgb(220,220,220)" stroke-width="1.2" stroke-linecap="round"/>
  <line x1="150.83" y1="82.86" x2="137.03" y2="59.59" stroke="rgb(220,220,220)" stroke-width="1.2" stroke-linecap="round"/>
  <line x1="169.27" y1="73.22" x2="158.03" y2="48.61" stroke="rgb(220,220,220)" stroke-width="1.2" stroke-linecap="round"/>
  <line x1="188.63" y1="65.61" x2="180.08" y2="39.93" stroke="rgb(220,220,220)" stroke-width="1.2" stroke-linecap="round"/>
  <line x1="229.23" y1="56.77" x2="226.33" y2="29.87" stroke="rgb(220,220,220)" stroke-width="1.2" stroke-linecap="round"/>
  <line x1="250.00" y1="55.66" x2="250.00" y2="28.60" stroke="rgb(220,220,220)" stroke-width="1.2" stroke-linecap="round"/>
  <line x1="270.77" y1="56.77" x2="273.67" y2="29.87" stroke="rgb(220,220,220)" stroke-width="1.2" stroke-linecap="round"/>
  <line x1="311.37" y1="65.61" x2="319.92" y2="39.93" stroke="rgb(220,220,220)" stroke-width="1.2" stroke-linecap="round"/>
  <line x1="330.73" y1="73.22" x2="341.97" y2="48.61" stroke="rgb(220,220,220)" stroke-width="1.2" stroke-linecap="round"/>
  <line x1="349.17" y1="82.86" x2="362.97" y2="59.59" stroke="rgb(220,220,220)" stroke-width="1.2" stroke-linecap="round"/>
  <line x1="382.43" y1="107.76" x2="400.87" y2="87.96" stroke="rgb(220,220,220)" stroke-width="1.2" stroke-linecap="round"/>
  <line x1="396.87" y1="122.73" x2="417.32" y2="105.01" stroke="rgb(220,220,220)" stroke-width="1.2" stroke-linecap="round"/>
  <line x1="409.63" y1="139.16" x2="431.86" y2="123.73" stroke="rgb(220,220,220)" stroke-width="1.2" stroke-linecap="round"/>
  <line x1="429.55" y1="175.63" x2="454.55" y2="165.27" stroke="rgb(220,220,220)" stroke-width="1.2" stroke-linecap="round"/>
  <line x1="436.47" y1="195.25" x2="462.43" y2="187.62" stroke="rgb(220,220,220)" stroke-width="1.2" stroke-linecap="round"/>
  <line x1="441.25" y1="215.49" x2="467.88" y2="210.69" stroke="rgb(220,220,220)" stroke-width="1.2" stroke-linecap="round"/>
  <line x1="444.22" y1="256.94" x2="471.26" y2="257.90" stroke="rgb(220,220,220)" stroke-width="1.2" stroke-linecap="round"/>
  <line x1="442.36" y1="277.66" x2="469.15" y2="281.51" stroke="rgb(220,220,220)" stroke-width="1.2" stroke-linecap="round"/>
  <line x1="438.30" y1="298.06" x2="464.52" y2="304.75" stroke="rgb(220,220,220)" stroke-width="1.2" stroke-linecap="round"/>
  <line x1="423.78" y1="336.99" x2="447.98" y2="349.10" stroke="rgb(220,220,220)" stroke-width="1.2" stroke-linecap="round"/>
  <line x1="413.49" y1="355.07" x2="436.25" y2="369.70" stroke="rgb(220,220,220)" stroke-width="1.2" stroke-linecap="round"/>
  <line x1="401.32" y1="371.94" x2="422.39" y2="388.92" stroke="rgb(220,220,220)" stroke-width="1.2" stroke-linecap="round"/>
  <circle cx="250.0" cy="250.0" r="191.88" fill="none" stroke="rgb(8,8,12)" stroke-opacity="0.80" stroke-width="3"/>
  <circle cx="250.0" cy="250.0" r="14.76" fill="rgb(30,30,35)" stroke="rgb(90,90,100)" stroke-width="1.5"/>

</svg>